<?xml version="1.0" encoding="UTF-8" standalone="no"?>
<!-- Generator: Adobe Illustrator 16.0.0, SVG Export Plug-In . SVG Version: 6.00 Build 0)  -->

<svg
   xmlns:dc="http://purl.org/dc/elements/1.1/"
   xmlns:cc="http://creativecommons.org/ns#"
   xmlns:rdf="http://www.w3.org/1999/02/22-rdf-syntax-ns#"
   xmlns:svg="http://www.w3.org/2000/svg"
   xmlns="http://www.w3.org/2000/svg"
   xmlns:xlink="http://www.w3.org/1999/xlink"
   xmlns:sodipodi="http://sodipodi.sourceforge.net/DTD/sodipodi-0.dtd"
   xmlns:inkscape="http://www.inkscape.org/namespaces/inkscape"
   version="1.1"
   id="Calque_1"
   x="0px"
   y="0px"
   width="960px"
   height="540px"
   viewBox="0 0 960 540"
   enable-background="new 0 0 960 540"
   xml:space="preserve"
   inkscape:version="0.91 r13725"
   sodipodi:docname="logo_cefim_421_378.svg"><metadata
     id="metadata3700"><rdf:RDF><cc:Work
         rdf:about=""><dc:format>image/svg+xml</dc:format><dc:type
           rdf:resource="http://purl.org/dc/dcmitype/StillImage" /><dc:title></dc:title></cc:Work></rdf:RDF></metadata><defs
     id="defs3698" /><sodipodi:namedview
     pagecolor="#ffffff"
     bordercolor="#666666"
     borderopacity="1"
     objecttolerance="10"
     gridtolerance="10"
     guidetolerance="10"
     inkscape:pageopacity="0"
     inkscape:pageshadow="2"
     inkscape:window-width="1366"
     inkscape:window-height="753"
     id="namedview3696"
     showgrid="false"
     inkscape:zoom="0.77519855"
     inkscape:cx="613.04608"
     inkscape:cy="320.97907"
     inkscape:window-x="0"
     inkscape:window-y="1"
     inkscape:window-maximized="0"
     inkscape:current-layer="Calque_1" /><g
     id="g3539"
     transform="matrix(0.41556123,0,0,0.41676615,-6.477117,-48.795804)"><defs
       id="defs3541"><rect
         id="SVGID_1_"
         width="960"
         height="540"
         x="0"
         y="0" /></defs><clipPath
       id="SVGID_2_"><use
         xlink:href="#SVGID_1_"
         overflow="visible"
         id="use3545"
         style="overflow:visible"
         x="0"
         y="0"
         width="100%"
         height="100%" /></clipPath><g
       clip-path="url(#SVGID_2_)"
       id="g3547"><defs
         id="defs3549"><path
           id="SVGID_3_"
           d="m 301.398,140.626 -71.915,77.811 c -3.733,4.039 -6.787,11.844 -6.787,17.344 l 0,68.438 c 0,5.5 3.054,13.306 6.787,17.345 l 71.915,77.811 c 3.734,4.039 9.97,4.162 13.859,0.273 L 437.831,277.074 c 3.89,-3.89 3.89,-10.253 10e-4,-14.142 L 315.257,140.353 c -1.896,-1.896 -4.351,-2.838 -6.8,-2.838 -2.575,-10e-4 -5.145,1.041 -7.059,3.111"
           inkscape:connector-curvature="0" /></defs><clipPath
         id="SVGID_4_"><use
           xlink:href="#SVGID_3_"
           overflow="visible"
           id="use3553"
           style="overflow:visible"
           x="0"
           y="0"
           width="100%"
           height="100%" /></clipPath><linearGradient
         id="SVGID_5_"
         gradientUnits="userSpaceOnUse"
         x1="-0.0009765625"
         y1="539.99707"
         x2="0.99900001"
         y2="539.99707"
         gradientTransform="matrix(218.0528,0,0,-218.0528,222.75,118018.51)"><stop
           offset="0"
           style="stop-color:#B31B00"
           id="stop3556" /><stop
           offset="1"
           style="stop-color:#DE2100"
           id="stop3558" /></linearGradient><rect
         x="222.696"
         y="137.51401"
         clip-path="url(#SVGID_4_)"
         width="219.02499"
         height="266.022"
         id="rect3560"
         style="fill:url(#SVGID_5_)" /></g><g
       clip-path="url(#SVGID_2_)"
       id="g3562"><defs
         id="defs3564"><path
           id="SVGID_6_"
           d="m 301.398,140.626 -71.915,77.811 c -3.733,4.039 -6.787,11.844 -6.787,17.344 l 0,68.438 c 0,5.5 3.054,13.306 6.787,17.345 l 71.915,77.811 c 3.734,4.039 9.97,4.162 13.859,0.273 L 437.831,277.074 c 3.89,-3.89 3.89,-10.253 10e-4,-14.142 L 315.257,140.353 c -1.896,-1.896 -4.351,-2.838 -6.8,-2.838 -2.575,-10e-4 -5.145,1.041 -7.059,3.111"
           inkscape:connector-curvature="0" /></defs><clipPath
         id="SVGID_7_"><use
           xlink:href="#SVGID_6_"
           overflow="visible"
           id="use3568"
           style="overflow:visible"
           x="0"
           y="0"
           width="100%"
           height="100%" /></clipPath><defs
         id="defs3570"><filter
           id="Adobe_OpacityMaskFilter"
           filterUnits="userSpaceOnUse"
           x="222.696"
           y="137.51401"
           width="219.02499"
           height="266.022"><feColorMatrix
             type="matrix"
             values="1 0 0 0 0  0 1 0 0 0  0 0 1 0 0  0 0 0 1 0"
             id="feColorMatrix3573" /></filter></defs><mask
         maskUnits="userSpaceOnUse"
         x="222.696"
         y="137.514"
         width="219.025"
         height="266.022"
         id="SVGID_8_"><g
           id="g3576"
           style="filter:url(#Adobe_OpacityMaskFilter)"><linearGradient
             id="SVGID_9_"
             gradientUnits="userSpaceOnUse"
             x1="-0.00048828131"
             y1="539.99799"
             x2="0.99949998"
             y2="539.99799"
             gradientTransform="matrix(218.0528,0,0,-218.0528,222.75,118018.5)"><stop
               offset="0"
               style="stop-color:#FFFFFF"
               id="stop3579" /><stop
               offset="0.0677"
               style="stop-color:#E1E1E1"
               id="stop3581" /><stop
               offset="0.213"
               style="stop-color:#A6A6A6"
               id="stop3583" /><stop
               offset="0.3581"
               style="stop-color:#737373"
               id="stop3585" /><stop
               offset="0.4996"
               style="stop-color:#4A4A4A"
               id="stop3587" /><stop
               offset="0.6368"
               style="stop-color:#2A2A2A"
               id="stop3589" /><stop
               offset="0.7684"
               style="stop-color:#131313"
               id="stop3591" /><stop
               offset="0.8921"
               style="stop-color:#050505"
               id="stop3593" /><stop
               offset="1"
               style="stop-color:#000000"
               id="stop3595" /></linearGradient><rect
             x="222.696"
             y="137.51401"
             clip-path="url(#SVGID_7_)"
             width="219.02499"
             height="266.022"
             id="rect3597"
             style="fill:url(#SVGID_9_)" /></g></mask><linearGradient
         id="SVGID_10_"
         gradientUnits="userSpaceOnUse"
         x1="-0.0009765625"
         y1="539.99707"
         x2="0.99900001"
         y2="539.99707"
         gradientTransform="matrix(218.0528,0,0,-218.0528,222.75,118018.51)"><stop
           offset="0"
           style="stop-color:#4F0C01"
           id="stop3600" /><stop
           offset="0.1162"
           style="stop-color:#6B1001"
           id="stop3602" /><stop
           offset="0.3093"
           style="stop-color:#941601"
           id="stop3604" /><stop
           offset="0.4985"
           style="stop-color:#B41B00"
           id="stop3606" /><stop
           offset="0.6802"
           style="stop-color:#CB1E00"
           id="stop3608" /><stop
           offset="0.851"
           style="stop-color:#D92000"
           id="stop3610" /><stop
           offset="1"
           style="stop-color:#DE2100"
           id="stop3612" /></linearGradient><rect
         x="222.696"
         y="137.51401"
         clip-path="url(#SVGID_7_)"
         mask="url(#SVGID_8_)"
         width="219.02499"
         height="266.022"
         id="rect3614"
         style="fill:url(#SVGID_10_)" /></g><g
       clip-path="url(#SVGID_2_)"
       id="g3616"><defs
         id="defs3618"><rect
           id="SVGID_11_"
           width="960"
           height="540"
           x="0"
           y="0" /></defs><clipPath
         id="SVGID_12_"><use
           xlink:href="#SVGID_11_"
           overflow="visible"
           id="use3622"
           style="overflow:visible"
           x="0"
           y="0"
           width="100%"
           height="100%" /></clipPath><path
         clip-path="url(#SVGID_12_)"
         d="m 219.859,164.46 c -3.889,-3.889 -10.253,-3.889 -14.142,0 l -42.162,42.166 c -3.888,3.889 -3.888,10.253 0.001,14.142 l 42.161,42.163 c 3.889,3.889 3.889,10.253 0,14.142 l -42.161,42.158 c -3.889,3.889 -3.889,10.253 -0.001,14.142 l 42.162,42.166 c 3.889,3.89 10.253,3.89 14.142,0 l 98.468,-98.466 c 3.889,-3.889 3.889,-10.253 0,-14.142 L 219.859,164.46 Z"
         id="path3624"
         inkscape:connector-curvature="0"
         style="fill:#fd6100" /><g
         clip-path="url(#SVGID_12_)"
         id="g3626"><defs
           id="defs3628"><rect
             id="SVGID_13_"
             x="128.83299"
             y="243.95799"
             width="53.546001"
             height="53.546001" /></defs><clipPath
           id="SVGID_14_"><use
             xlink:href="#SVGID_13_"
             overflow="visible"
             id="use3632"
             style="overflow:visible"
             x="0"
             y="0"
             width="100%"
             height="100%" /></clipPath><path
           clip-path="url(#SVGID_14_)"
           d="m 163.319,294.322 c -4.242,4.243 -11.182,4.243 -15.426,0 l -15.876,-15.878 c -4.244,-4.242 -4.244,-11.184 0,-15.427 l 15.876,-15.878 c 4.244,-4.242 11.184,-4.242 15.426,0 l 15.878,15.878 c 4.243,4.243 4.243,11.185 0,15.427 l -15.878,15.878 z"
           id="path3634"
           inkscape:connector-curvature="0"
           style="fill:#fd6100" /></g><path
         clip-path="url(#SVGID_12_)"
         d="m 130.288,336.963 c -3.374,3.374 -8.895,3.374 -12.266,0 l -12.631,-12.629 c -3.376,-3.371 -3.376,-8.895 0,-12.27 l 12.631,-12.628 c 3.371,-3.373 8.892,-3.373 12.266,0 l 12.631,12.628 c 3.374,3.375 3.374,8.898 0,12.27 l -12.631,12.629 z"
         id="path3636"
         inkscape:connector-curvature="0"
         style="fill:#fd6100" /><path
         clip-path="url(#SVGID_12_)"
         d="m 55.647,289.136 c -1.591,1.592 -4.194,1.592 -5.783,0 l -5.952,-5.949 c -1.589,-1.59 -1.589,-4.193 0,-5.782 l 5.952,-5.95 c 1.589,-1.593 4.192,-1.593 5.783,0 l 5.949,5.95 c 1.591,1.589 1.591,4.192 0,5.782 l -5.949,5.949 z"
         id="path3638"
         inkscape:connector-curvature="0"
         style="fill:#fd6100" /><path
         clip-path="url(#SVGID_12_)"
         d="m 44.866,266.811 c -1.179,1.178 -3.11,1.178 -4.293,0 l -4.418,-4.421 c -1.181,-1.181 -1.181,-3.11 0,-4.293 l 4.418,-4.419 c 1.183,-1.18 3.114,-1.18 4.293,0 l 4.423,4.419 c 1.179,1.183 1.179,3.112 0,4.293 l -4.423,4.421 z"
         id="path3640"
         inkscape:connector-curvature="0"
         style="fill:#fd6100" /><path
         clip-path="url(#SVGID_12_)"
         d="m 112.405,292.979 c -1.924,1.925 -5.075,1.925 -6.999,0 l -7.204,-7.2 c -1.925,-1.926 -1.925,-5.076 0,-7.001 l 7.204,-7.203 c 1.924,-1.922 5.075,-1.922 6.999,0 l 7.203,7.203 c 1.928,1.925 1.928,5.075 0,7.001 l -7.203,7.2 z"
         id="path3642"
         inkscape:connector-curvature="0"
         style="fill:#fd6100" /><path
         clip-path="url(#SVGID_12_)"
         d="m 81.437,310.918 c -2.415,2.415 -6.36,2.415 -8.776,0 l -9.027,-9.031 c -2.416,-2.411 -2.416,-6.357 0,-8.769 l 9.027,-9.03 c 2.416,-2.413 6.361,-2.413 8.776,0 l 9.028,9.03 c 2.415,2.411 2.415,6.357 0,8.769 l -9.028,9.031 z"
         id="path3644"
         inkscape:connector-curvature="0"
         style="fill:#fd6100" /><path
         clip-path="url(#SVGID_12_)"
         d="m 518.047,312.829 c -25.941,0 -36.512,-18.256 -36.512,-45.159 0,-28.44 10.378,-46.504 37.089,-46.504 7.878,0 18.829,3.074 25.173,5.572 l -2.884,6.918 c -6.533,-3.266 -15.948,-6.148 -22.484,-6.148 -21.904,0 -28.438,17.679 -28.438,40.162 0,20.561 5.957,38.816 28.248,38.816 5.957,0 15.564,-2.308 23.06,-6.149 l 2.883,6.918 c -6.729,3.267 -19.41,5.574 -26.135,5.574"
         id="path3646"
         inkscape:connector-curvature="0"
         style="fill:#433b3b" /><path
         clip-path="url(#SVGID_12_)"
         d="m 569.935,268.821 c 0,20.947 6.34,37.667 27.862,37.667 10.187,0 18.065,-3.074 27.098,-7.878 l 2.306,7.109 c -9.994,4.804 -20.563,7.11 -30.939,7.11 -25.559,0 -34.973,-20.563 -34.973,-44.966 0,-20.37 7.876,-46.697 34.588,-46.697 28.44,0 34.59,21.523 34.59,47.655 l -60.532,0 z m 25.941,-41.313 c -16.909,0 -24.981,13.835 -26.134,34.973 l 53.038,0 c 0,-23.059 -7.687,-34.973 -26.904,-34.973"
         id="path3648"
         inkscape:connector-curvature="0"
         style="fill:#433b3b" /><path
         clip-path="url(#SVGID_12_)"
         d="m 665.831,210.212 0,12.875 18.063,0 0,6.342 -18.063,0 0,81.478 -7.878,0 0,-81.478 -14.607,0 0,-6.342 14.607,0 0,-12.298 c 0,-17.295 10.184,-27.48 29.593,-29.017 l 1.923,6.917 c -20.179,1.921 -23.638,10.186 -23.638,21.523"
         id="path3650"
         inkscape:connector-curvature="0"
         style="fill:#433b3b" /><rect
         x="699.84302"
         y="223.08701"
         clip-path="url(#SVGID_12_)"
         width="7.8779998"
         height="87.820999"
         id="rect3652"
         style="fill:#433b3b" /><path
         clip-path="url(#SVGID_12_)"
         d="m 844.159,310.907 0,-55.727 c 0,-13.067 -2.688,-27.672 -22.676,-27.672 -11.528,0 -20.944,11.53 -24.213,20.561 l 0,62.838 -7.877,0 0,-55.727 c 0,-16.72 -7.302,-27.672 -21.909,-27.672 -11.526,0 -20.942,10.76 -24.019,19.602 l 0,63.797 -7.88,0 0,-67.642 c 0,-7.304 -0.96,-13.644 -1.536,-20.179 l 6.341,0 2.689,13.837 c 4.036,-5.959 11.53,-15.758 25.56,-15.758 15.758,0 23.253,9.416 26.325,19.408 4.997,-8.069 12.877,-19.408 27.289,-19.408 19.407,0 29.783,10.184 29.783,33.628 l 0,56.113 -7.877,0 z"
         id="path3654"
         inkscape:connector-curvature="0"
         style="fill:#433b3b" /><rect
         x="699.07501"
         y="195.33299"
         clip-path="url(#SVGID_12_)"
         width="9.224"
         height="13.067"
         id="rect3656"
         style="fill:#de2100" /></g><g
       clip-path="url(#SVGID_2_)"
       id="g3658"><text
         transform="translate(483.2354,353.1074)"
         id="text3660"><tspan
           x="0"
           y="0"
           font-size="35.8537"
           letter-spacing="-3"
           id="tspan3662"
           style="font-size:35.85369873px;font-family:Signika-Light;letter-spacing:-3;fill:#433b3b">L</tspan><tspan
           x="13.552"
           y="0"
           font-size="35.8537"
           id="tspan3664"
           style="font-size:35.85369873px;font-family:Signika-Light;fill:#433b3b">’</tspan><tspan
           x="20.184999"
           y="0"
           font-size="35.8537"
           id="tspan3666"
           style="font-size:35.85369873px;font-family:Signika-Light;fill:#433b3b">é</tspan><tspan
           x="38.146"
           y="0"
           font-size="35.8537"
           id="tspan3668"
           style="font-size:35.85369873px;font-family:Signika-Light;fill:#433b3b">c</tspan><tspan
           x="54.064999"
           y="0"
           font-size="35.8537"
           id="tspan3670"
           style="font-size:35.85369873px;font-family:Signika-Light;fill:#433b3b">o</tspan><tspan
           x="73.749001"
           y="0"
           font-size="35.8537"
           id="tspan3672"
           style="font-size:35.85369873px;font-family:Signika-Light;fill:#433b3b">l</tspan><tspan
           x="81.888"
           y="0"
           font-size="35.8537"
           id="tspan3674"
           style="font-size:35.85369873px;font-family:Signika-Light;fill:#433b3b">e du </tspan></text>
</g><g
       clip-path="url(#SVGID_2_)"
       id="g3676"><text
         transform="translate(639.8447,353.1074)"
         id="text3678"><tspan
           x="0"
           y="0"
           font-size="35.8537"
           id="tspan3680"
           style="font-size:35.85369873px;font-family:Signika-Light;fill:#de2100">w</tspan><tspan
           x="25.778"
           y="0"
           font-size="35.8537"
           id="tspan3682"
           style="font-size:35.85369873px;font-family:Signika-Light;fill:#de2100">eb </tspan></text>
</g><g
       clip-path="url(#SVGID_2_)"
       id="g3684"><text
         transform="translate(709.1826,353.1074)"
         font-size="35.8537"
         id="text3686"
         style="font-size:35.85369873px;font-family:Signika-Light;fill:#433b3b">et des </text>
</g><g
       clip-path="url(#SVGID_2_)"
       id="g3688"><text
         transform="translate(807.4941,353.1074)"
         id="text3690"><tspan
           x="0"
           y="0"
           font-size="35.8537"
           id="tspan3692"
           style="font-size:35.85369873px;font-family:Signika-Light;fill:#fd6100">r</tspan><tspan
           x="10.936"
           y="0"
           font-size="35.8537"
           id="tspan3694"
           style="font-size:35.85369873px;font-family:Signika-Light;fill:#fd6100">éseaux</tspan></text>
</g></g></svg>